<svg width="40" height="40" viewBox="0 0 40 40" fill="none" xmlns="http://www.w3.org/2000/svg">
<path d="M4.01785 14.749C4.00603 14.5418 4.00008 14.3338 4 14.125C4.00032 12.2471 4.65102 10.4273 5.84148 8.97488C7.03193 7.52251 8.68866 6.52727 10.53 6.15836C12.3713 5.78945 14.2836 6.06965 15.9416 6.95131C17.5997 7.83298 18.9013 9.26169 19.625 10.9945L19.625 10.9946C20.3487 9.2617 21.6503 7.83299 23.3083 6.95132C24.9664 6.06965 26.8787 5.78945 28.72 6.15836C30.5613 6.52727 32.2181 7.52251 33.4085 8.97488C34.599 10.4272 35.2497 12.2471 35.25 14.125C35.25 24.75 19.625 33.5 19.625 33.5C19.625 33.5 13.3836 30.0049 8.79023 24.7502" stroke="#961914" stroke-width="2" stroke-linecap="round" stroke-linejoin="round"/>
</svg>
