<svg width="31" height="36" viewBox="0 0 31 36" fill="none" xmlns="http://www.w3.org/2000/svg">
<path d="M15.5409 18L15.375 34.0641" stroke="#961914" stroke-width="2" stroke-linecap="round" stroke-linejoin="round"/>
<path d="M29.75 25.3956V10.6043C29.75 10.3829 29.6912 10.1655 29.5797 9.97432C29.4681 9.78313 29.3078 9.62499 29.1151 9.51607L15.9901 2.09759C15.8024 1.99153 15.5905 1.93579 15.375 1.93579C15.1595 1.93579 14.9476 1.99153 14.7599 2.09759L1.63493 9.51607C1.44222 9.62499 1.28189 9.78313 1.17034 9.97432C1.05878 10.1655 1 10.3829 1 10.6043V25.3956C1 25.617 1.05878 25.8344 1.17034 26.0256C1.28189 26.2167 1.44222 26.3749 1.63493 26.4838L14.7599 33.9023C14.9476 34.0084 15.1595 34.0641 15.375 34.0641C15.5905 34.0641 15.8024 34.0084 15.9901 33.9023L29.1151 26.4838C29.3078 26.3749 29.4681 26.2167 29.5797 26.0256C29.6912 25.8344 29.75 25.617 29.75 25.3956V25.3956Z" stroke="#961914" stroke-width="2" stroke-linecap="round" stroke-linejoin="round"/>
<path d="M29.5788 9.97291L15.5408 17.9999L1.17224 9.97119" stroke="#961914" stroke-width="2" stroke-linecap="round" stroke-linejoin="round"/>
<path d="M23.0523 21.2048V13.7048L8.55554 5.60449" stroke="#961914" stroke-width="2" stroke-linecap="round" stroke-linejoin="round"/>
</svg>
