<svg width="24" height="24" viewBox="0 0 24 24" fill="none" xmlns="http://www.w3.org/2000/svg">
<path d="M8.24994 12.6443L16.6797 20.0625C16.7772 20.1484 16.8954 20.2074 17.0226 20.2338C17.1498 20.2602 17.2817 20.2532 17.4053 20.2133C17.529 20.1734 17.6401 20.1021 17.728 20.0063C17.8158 19.9106 17.8772 19.7937 17.9062 19.667L21.4325 4.27959C21.463 4.14655 21.4566 4.00771 21.414 3.87804C21.3714 3.74837 21.2942 3.63277 21.1908 3.54371C21.0874 3.45466 20.9616 3.39551 20.827 3.37265C20.6925 3.3498 20.5542 3.36409 20.4272 3.414L3.12499 10.2113C2.9742 10.2705 2.84664 10.377 2.76141 10.5148C2.67618 10.6526 2.63785 10.8142 2.65216 10.9756C2.66648 11.137 2.73266 11.2894 2.84082 11.41C2.94897 11.5307 3.09328 11.613 3.25214 11.6448L8.24994 12.6443Z" stroke="white" stroke-linecap="round" stroke-linejoin="round"/>
<path d="M8.24994 12.6442L21.0105 3.42822" stroke="white" stroke-linecap="round" stroke-linejoin="round"/>
<path d="M12.46 16.3491L9.53027 19.2788C9.42538 19.3837 9.29174 19.4551 9.14626 19.4841C9.00077 19.513 8.84997 19.4982 8.71293 19.4414C8.57588 19.3846 8.45875 19.2885 8.37634 19.1652C8.29393 19.0418 8.24994 18.8968 8.24994 18.7485V12.6443" stroke="white" stroke-linecap="round" stroke-linejoin="round"/>
</svg>
