<svg width="40" height="40" viewBox="0 0 40 40" fill="none" xmlns="http://www.w3.org/2000/svg">
<path d="M5 20H11.25L13.75 16.25L18.75 23.75L21.25 20H25" stroke="#961914" stroke-width="2" stroke-linecap="round" stroke-linejoin="round"/>
<path d="M4.39285 14.999C4.38103 14.7917 4.37508 14.5837 4.375 14.375C4.37532 12.4971 5.02602 10.6772 6.21648 9.22487C7.40693 7.7725 9.06366 6.77725 10.905 6.40834C12.7463 6.03943 14.6586 6.31963 16.3166 7.2013C17.9747 8.08296 19.2763 9.51168 20 11.2445L20 11.2445C20.7237 9.51169 22.0253 8.08297 23.6833 7.2013C25.3414 6.31964 27.2537 6.03944 29.095 6.40834C30.9363 6.77725 32.5931 7.77249 33.7835 9.22486C34.974 10.6772 35.6247 12.4971 35.625 14.375C35.625 25 20 33.75 20 33.75C20 33.75 13.7586 30.2548 9.16523 25.0002" stroke="#961914" stroke-width="2" stroke-linecap="round" stroke-linejoin="round"/>
</svg>
