<svg width="40" height="40" viewBox="0 0 40 40" fill="none" xmlns="http://www.w3.org/2000/svg">
<path d="M20 35C28.2843 35 35 28.2843 35 20C35 11.7157 28.2843 5 20 5C11.7157 5 5 11.7157 5 20C5 28.2843 11.7157 35 20 35Z" stroke="#961914" stroke-width="2" stroke-linecap="round" stroke-linejoin="round"/>
<path d="M26.4966 23.7494C25.8376 24.8891 24.8905 25.8355 23.7502 26.4934C22.6098 27.1513 21.3165 27.4976 20 27.4976C18.6835 27.4976 17.3902 27.1513 16.2499 26.4934C15.1096 25.8355 14.1624 24.8892 13.5034 23.7495" stroke="#961914" stroke-width="2" stroke-linecap="round" stroke-linejoin="round"/>
<path d="M14.375 18.75C15.4105 18.75 16.25 17.9105 16.25 16.875C16.25 15.8395 15.4105 15 14.375 15C13.3395 15 12.5 15.8395 12.5 16.875C12.5 17.9105 13.3395 18.75 14.375 18.75Z" fill="#961914"/>
<path d="M25.625 18.75C26.6605 18.75 27.5 17.9105 27.5 16.875C27.5 15.8395 26.6605 15 25.625 15C24.5895 15 23.75 15.8395 23.75 16.875C23.75 17.9105 24.5895 18.75 25.625 18.75Z" fill="#961914"/>
</svg>
